<?xml version="1.0" standalone="no"?>
<!DOCTYPE svg PUBLIC "-//W3C//DTD SVG 20010904//EN"
 "http://www.w3.org/TR/2001/REC-SVG-20010904/DTD/svg10.dtd">
<svg version="1.0" xmlns="http://www.w3.org/2000/svg"
 width="1707.000000pt" height="1707.000000pt" viewBox="0 0 1707.000000 1707.000000"
 preserveAspectRatio="xMidYMid meet">
<metadata>
Created by potrace 1.14, written by Peter Selinger 2001-2017
</metadata>
<g transform="translate(0.000000,1707.000000) scale(0.100000,-0.100000)"
fill="#000000" stroke="none">
<path d="M8115 16969 c-258 -130 -384 -197 -520 -277 -114 -67 -356 -222 -365
-232 -4 -6 -91 -67 -155 -110 -12 -8 -37 -27 -56 -42 -19 -14 -79 -61 -134
-104 -55 -43 -102 -81 -105 -84 -3 -3 -30 -25 -59 -50 -30 -25 -64 -54 -76
-65 -12 -11 -57 -51 -100 -90 -146 -128 -417 -406 -573 -585 -284 -327 -607
-788 -830 -1186 -112 -198 -137 -247 -242 -459 -92 -187 -133 -277 -235 -510
-34 -78 -105 -260 -181 -464 -63 -170 -81 -227 -72 -233 7 -4 36 -15 63 -22
28 -8 173 -49 324 -91 282 -80 333 -95 561 -170 172 -57 312 -105 420 -145 47
-18 96 -35 110 -40 53 -16 453 -181 620 -255 190 -84 647 -306 775 -377 44
-25 116 -64 160 -88 44 -24 91 -51 105 -60 14 -9 32 -20 40 -24 8 -4 24 -12
35 -19 11 -7 56 -34 100 -60 44 -27 89 -54 99 -60 11 -7 83 -52 160 -101 78
-49 151 -94 163 -101 l23 -12 -33 -45 c-17 -25 -59 -76 -93 -114 -33 -38 -100
-114 -149 -169 -48 -55 -117 -134 -154 -175 -92 -103 -146 -165 -216 -245 -33
-37 -65 -73 -70 -79 -15 -16 -151 -171 -212 -241 -28 -33 -62 -72 -75 -86 -12
-14 -48 -54 -78 -89 -30 -35 -71 -82 -91 -104 -112 -127 -401 -460 -504 -581
-66 -77 -122 -142 -125 -145 -3 -3 -73 -84 -155 -180 -82 -96 -162 -188 -177
-205 -14 -16 -93 -109 -174 -205 -81 -96 -150 -177 -153 -180 -7 -5 -67 -77
-500 -595 -161 -192 -302 -360 -313 -373 -16 -20 -381 -463 -481 -586 -18 -21
-39 -46 -47 -56 -8 -10 -22 -27 -30 -37 -53 -66 -145 -179 -150 -183 -3 -3
-39 -48 -80 -100 -41 -52 -83 -104 -92 -115 -18 -22 -376 -470 -420 -526 -15
-19 -62 -79 -105 -134 -105 -133 -468 -603 -568 -735 -43 -58 -100 -132 -125
-165 -107 -141 -510 -694 -580 -795 -8 -12 -35 -49 -59 -82 -24 -34 -121 -176
-215 -317 -146 -217 -216 -325 -316 -486 -167 -268 -368 -648 -437 -826 -76
-192 -102 -303 -98 -416 3 -113 31 -159 150 -250 104 -79 643 -429 793 -514
17 -11 47 -27 65 -38 17 -10 57 -33 87 -51 104 -62 355 -201 495 -275 50 -26
96 -52 104 -58 8 -7 16 -11 18 -9 2 1 42 -18 91 -42 73 -36 202 -96 347 -161
74 -32 224 -78 265 -80 56 -3 70 2 80 29 14 39 -30 107 -163 251 -68 75 -78
97 -80 186 -1 92 6 167 23 232 17 62 59 199 69 222 5 11 15 36 21 55 14 36 18
47 71 170 141 329 434 866 759 1390 29 47 58 94 64 105 6 11 23 38 37 60 25
39 47 73 175 273 146 231 746 1124 903 1347 12 17 94 134 183 260 183 262 413
586 468 660 66 90 294 406 334 464 22 31 42 58 45 61 4 3 29 37 56 75 27 39
115 158 195 267 80 108 181 245 225 305 170 232 632 846 914 1215 163 214 309
405 324 425 16 21 36 47 45 58 9 11 30 38 47 60 16 22 34 45 40 52 5 7 25 31
42 55 18 24 90 118 160 209 71 91 138 179 150 195 50 64 508 653 552 709 26
33 92 116 147 184 54 67 107 133 116 144 16 21 18 20 163 -128 81 -83 197
-204 258 -270 61 -66 116 -125 122 -131 5 -6 35 -39 65 -75 30 -35 71 -82 91
-104 166 -189 518 -657 710 -945 97 -146 279 -437 331 -530 11 -19 24 -39 28
-45 4 -5 20 -32 35 -60 15 -27 53 -95 83 -150 106 -190 153 -281 281 -540 137
-279 142 -290 233 -495 127 -287 131 -293 185 -278 20 5 43 11 52 13 15 4 164
55 321 110 925 328 1707 900 2291 1675 282 374 536 823 733 1295 37 88 71 169
76 180 50 113 199 558 261 780 28 99 57 200 64 225 29 98 67 292 59 299 -5 5
-99 39 -209 76 -391 131 -832 301 -1082 416 -24 10 -45 19 -47 19 -2 0 -47 20
-100 45 -53 25 -98 45 -101 45 -7 0 -276 130 -465 225 -184 91 -384 197 -533
282 -42 24 -99 55 -125 70 -26 14 -71 41 -100 60 -29 18 -54 33 -57 33 -19 0
-554 352 -825 543 -287 203 -430 315 -430 339 0 5 24 41 54 81 64 86 87 142
87 212 1 66 -6 88 -44 144 -29 42 -180 197 -319 326 -35 33 -118 110 -184 171
-165 155 -172 161 -257 238 -229 206 -295 235 -429 190 -45 -15 -75 -38 -201
-156 l-28 -26 -42 46 c-23 26 -51 56 -62 67 -11 12 -50 54 -86 96 -37 41 -80
88 -95 105 -16 17 -46 52 -67 77 -21 26 -43 52 -50 59 -7 7 -34 40 -62 73 -27
33 -52 62 -56 65 -3 3 -77 95 -165 205 -221 277 -443 576 -595 800 -41 61 -78
115 -82 120 -57 73 -443 692 -520 835 -11 19 -45 80 -77 135 -31 55 -74 130
-94 168 -70 130 -103 193 -141 265 -20 39 -40 72 -44 72 -3 0 -96 -46 -206
-101z"/>
</g>
</svg>
